<svg width="32" height="32" viewBox="0 0 32 32" fill="none" xmlns="http://www.w3.org/2000/svg">
  <defs>
    <linearGradient id="heartGradient" x1="0" y1="0" x2="32" y2="32" gradientUnits="userSpaceOnUse">
      <stop stop-color="#ff4d6d" offset="0%" />
      <stop stop-color="#ffb8d1" offset="100%" />
    </linearGradient>
    <filter id="shadow" x="0" y="0" width="32" height="32" filterUnits="userSpaceOnUse">
      <feDropShadow dx="0" dy="1" stdDeviation="1" flood-opacity="0.2" />
    </filter>
  </defs>
  <path d="M16 28.5L14.1 26.85C7.2 20.6 2.5 16.35 2.5 11.25C2.5 7.15 5.75 3.9 9.85 3.9C12.15 3.9 14.35 4.95 15.85 6.6C17.35 4.95 19.55 3.9 21.85 3.9C25.95 3.9 29.15 7.15 29.15 11.25C29.15 16.35 24.45 20.6 17.55 26.85L16 28.5Z" fill="url(#heartGradient)" filter="url(#shadow)" />
  <path d="M10 7C8 7 6.5 8.5 6.5 10.5C6.5 11.5 7 12.5 7.5 13" stroke="white" stroke-width="1.5" stroke-linecap="round" opacity="0.4" />
</svg>
